<?xml version="1.0" encoding="utf-8"?>
<!-- Generator: Adobe Illustrator 23.0.1, SVG Export Plug-In . SVG Version: 6.00 Build 0)  -->
<svg version="1.1" id="Layer_1" xmlns="http://www.w3.org/2000/svg" xmlns:xlink="http://www.w3.org/1999/xlink" x="0px" y="0px"
	 viewBox="0 0 1000 1000" style="enable-background:new 0 0 1000 1000;" xml:space="preserve">
<style type="text/css">
	.st0{fill:#E54825;}
	.st1{fill:#222D32;}
</style>
<g>
	<path class="st0" d="M122.6,385.4c6.6,1.2,13.3,2,19.8,3.6c44.8,11.1,78.7,49.1,85,94.9c8.4,60.9-31.3,116.7-91.7,128.7
		c-4.4,0.9-8.8,1.3-13.2,2c-20.2,0-40.5,0-60.7,0c0-38.4,0-76.8,0.1-115.1c0-2.6,0.2-5.2,0.6-7.7c3.9-25.7,27.4-45.3,53.2-44.2
		c27.2,1.1,49.1,22.1,50.8,48.9c2.6,39.8-37.9,67.7-74.2,51.2c-0.8-0.3-1.6-0.6-2.7-1.1c0,12.2,0,24,0.1,35.8c0,0.7,1.3,1.8,2.3,2
		c11.6,3.3,23.5,4,35.3,2.1c50.4-8.1,82.9-55.9,72-105.5c-10.1-45.9-56-76-101.8-66.7c-41.4,8.4-70.3,43.8-70.4,86.2
		c-0.1,37.1,0,74.2,0,111.3c0,1,0.1,2,0.2,2.9c-9.1,0-18.3,0-27.4,0c0-41.1,0-82.1,0-123.2c0.4-2.3,0.8-4.7,1.1-7
		c6.3-46.3,40.1-84.1,85.4-95.4c6.4-1.6,13-2.4,19.5-3.5C111.5,385.4,117.1,385.4,122.6,385.4z"/>
	<path class="st1" d="M1000,547.3c-6.1,0-12.2,0-18.9,0c0-4.6,0-9.1,0-13.6c0-17.6,0-35.1-0.2-52.7c-0.2-13.7-10.6-26.1-24-28.9
		c-18.5-3.9-37.2,11.1-37.3,30c-0.1,20.5,0.1,41.1,0.1,61.6c0,1.2,0,2.3,0,3.7c-6.2,0-12.1,0-18.3,0c0-36.3,0-72.5,0-109.1
		c5.9,0,11.8,0,18.1,0c0,1.8,0,3.6,0,6c5.9-5.3,12.3-8.6,19.4-10.4c28.1-7.1,57.5,13.6,60.4,42.4c0.1,0.9,0.4,1.7,0.6,2.6
		C1000,501.7,1000,524.5,1000,547.3z"/>
	<path class="st1" d="M286.8,535.1c0,18.1,0,36.1,0,54.4c-6.2,0-12.1,0-18.2,0c-0.1-0.8-0.2-1.5-0.2-2.3c0-31.6-0.1-63.3,0-94.9
		c0.1-28.6,20.3-52.8,48.2-58.4c33.6-6.8,66.5,16.8,71,50.9c4.3,33.6-18.8,63.7-52.4,67.7c-17.7,2.1-32.9-4-46-15.8
		c-0.6-0.6-0.9-1.5-1.4-2.2C287.5,534.7,287.1,534.9,286.8,535.1z M328.4,534.4c23-0.1,41.4-18.6,41.4-41.7
		c0-23-18.7-41.7-41.6-41.6c-23,0.1-41.4,18.7-41.4,41.8C286.8,516,305.4,534.5,328.4,534.4z"/>
	<path class="st1" d="M671.2,517.2c8.8,13.5,27.5,20.1,43.9,15.7c10.1-2.7,18.1-8.4,23.9-17.1c5.8-8.7,7.9-18.3,6.6-28.8
		c6.3,0,12.2,0,18.2,0c3.3,23-10.5,53.1-41.3,62.9c-29.1,9.3-60.6-5-73-33c-12.4-28.2-1.5-61.2,25.4-76.5
		c27.8-15.8,58.9-5.5,73.4,11.9C722.8,473.8,697.1,495.4,671.2,517.2z M663.5,499.6c18.5-15.5,36.5-30.7,54.6-46
		c-13.8-5.8-31.5-1.9-42.8,9.3C665.4,472.9,661.7,485,663.5,499.6z"/>
	<path class="st1" d="M514.3,547.4c-6.3,0-12.2,0-18.4,0c0-3.7,0-7.2,0-11.3c-1,0.8-1.5,1.2-2,1.6c-34.1,29.5-86.6,13.1-97.7-30.5
		c-10.2-40.2,22.9-78.5,64.2-74.3c30.4,3.1,53.6,28.4,53.9,58.9c0.2,17.9,0,35.7,0,53.6C514.3,545.9,514.3,546.5,514.3,547.4z
		 M412.8,492.5c-0.1,22.9,18.4,41.6,41.2,41.7c23,0.1,41.8-18.4,41.9-41c0-23.6-18.3-42.3-41.5-42.3
		C431.5,450.9,412.9,469.5,412.8,492.5z"/>
	<path class="st1" d="M771,492.5c0.1-33.1,26.9-60,60-60c33.1,0,60.1,27.2,60,60.3c-0.2,33.2-27,59.9-60.1,59.8
		C797.8,552.6,771,525.6,771,492.5z M830.9,534.2c23,0,41.6-18.6,41.7-41.5c0.1-22.9-18.6-41.7-41.5-41.8
		c-22.9,0-41.6,18.7-41.7,41.6C789.3,515.5,808,534.2,830.9,534.2z"/>
	<path class="st1" d="M520.1,438c3.6,0,6.9,0,10.5,0c0-14.1,0-28,0-42.2c6.3,0,12.2,0,18.5,0c0,14,0,27.9,0,42.1
		c9.4,0,18.3,0,27.5,0c0,6.2,0,12.1,0,18.4c-9,0-18.1,0-27.5,0c0,30.5,0,60.6,0,91c-6.2,0-12.1,0-18.4,0c0-1.3,0-2.4,0-3.6
		c0-28,0-55.9,0.1-83.9c0-2.7-0.7-3.7-3.5-3.5c-2.3,0.2-4.7,0-7.3,0C520.1,450.2,520.1,444.3,520.1,438z"/>
	<path class="st1" d="M604.5,453.9c8.7-7.9,18.7-13.3,30.3-15.3c4-0.7,8.2-0.8,12.6-1.2c0,6.1,0,11.5,0,16.9c0,2.1-1.5,1.7-2.7,1.7
		c-9.1,0.1-17.4,3-24.5,8.7c-10.3,8.2-15.9,18.9-16.1,32.1c-0.2,15.7-0.1,31.3-0.1,47c0,1.1,0,2.1,0,3.4c-6.1,0-12,0-18.1,0
		c0-36.4,0-72.7,0-109.1c5.8,0,11.6,0,17.8,0c0,5.1,0,10.2,0,15.4C604,453.7,604.2,453.8,604.5,453.9z"/>
</g>
</svg>
